<?xml version="1.0" encoding="utf-8"?>
<svg xmlns="http://www.w3.org/2000/svg">
	<defs>
		<symbol id="multisoftdelete" viewBox="0 0 32 32">
			<path fill="currentColor" d="M15 4c-.523 0-1.059.184-1.438.563C13.184 4.94 13 5.476 13 6v1H7v2h1v16c0 1.645 1.355 3 3 3h12c1.645 0 3-1.355 3-3V9h1V7h-6V6c0-.523-.184-1.059-.563-1.438C20.06 4.184 19.523 4 19 4zm0 2h4v1h-4zm-5 3h14v16c0 .555-.445 1-1 1H11c-.555 0-1-.445-1-1zm2 3v11h2V12zm4 0v11h2V12zm4 0v11h2V12z" />
		</symbol>
		<symbol id="multirestore" viewBox="0 0 2048 2048">
			<path fill="currentColor" d="M1086 91L281 896h999v960q0 40-15 75t-41 61t-61 41t-75 15H320q-40 0-75-15t-61-41t-41-61t-15-75v-807l-37 37l-91-90l272-272l-91-90q-18-18-27-41t-10-50q0-51 37-90l271-272q18-18 41-27t50-10q26 0 49 9t42 28l90 91L996 0zm66 1765v-832H256v832q0 26 19 45t45 19h768q26 0 45-19t19-45M543 272L272 543l90 91l272-272zm1377-16h128v512h-512V640h292q-77-60-167-91t-188-31q-115 0-219 43t-185 124l-90-90q100-100 226-152t268-53q123 0 238 41t209 119zm-896 896v640H896v-640zm-256 0v640H640v-640zm-256 0v640H384v-640z" />
		</symbol>
		<symbol id="multidelete" viewBox="0 0 24 24">
			<path fill="#f00" d="M7 11h10v2H7zm5-9C6.48 2 2 6.48 2 12s4.48 10 10 10s10-4.48 10-10S17.52 2 12 2m0 18c-4.41 0-8-3.59-8-8s3.59-8 8-8s8 3.59 8 8s-3.59 8-8 8" />
		</symbol>
		<symbol id="multimerge" viewBox="0 0 16 16">
			<path fill="currentColor" d="M2 4.25a.75.75 0 0 1 .75-.75h1.789c.835 0 1.625.38 2.147 1.032l1.499 1.874a2.25 2.25 0 0 0 1.757.844H11.5a.72.72 0 0 1 .005 0h.222l-1.572-2.043a.75.75 0 0 1 1.19-.914l2.5 3.25a.75.75 0 0 1 0 .914l-2.5 3.25a.75.75 0 0 1-1.19-.914l1.572-2.043H9.71c-.38 0-.739.173-.976.47l-1.499 1.873A3.75 3.75 0 0 1 4.308 12.5H2.75a.75.75 0 0 1 0-1.5h1.558c.684 0 1.33-.31 1.757-.844l1.499-1.874a2.75 2.75 0 0 1 .203-.227a3.76 3.76 0 0 1-.753-.712l-1.5-1.874A1.25 1.25 0 0 0 4.54 5H2.75A.75.75 0 0 1 2 4.25" />
		</symbol>
		<symbol id="multisplit" viewBox="0 0 24 24">
			<path fill="none" stroke="currentColor" stroke-linecap="round" stroke-linejoin="round" stroke-width="2" d="M21 17H4.603M21 17l-3-3m3 3l-3 3M4.603 17H3m1.603 0a6 6 0 0 0 5.145-2.913l2.504-4.174A6 6 0 0 1 17.397 7H21m0 0l-3 3m3-3l-3-3" />
		</symbol>
		<symbol id="multimove" viewBox="0 0 24 24">
			<path fill="none" stroke="currentColor" stroke-linecap="round" stroke-linejoin="round" stroke-width="2" d="M12 13V3M9 6l3-3l3 3m-3 11a2 2 0 1 1 0 4a2 2 0 0 1 0-4" />
		</symbol>
		<symbol id="multiapprove" viewBox="0 0 24 24">
			<path fill="currentColor" d="M.41 13.41L6 19l1.41-1.42L1.83 12m20.41-6.42L11.66 16.17L7.5 12l-1.43 1.41L11.66 19l12-12M18 7l-1.41-1.42l-6.35 6.35l1.42 1.41z" />
		</symbol>
		<symbol id="multiunapprove" viewBox="0 0 24 24">
			<path fill="currentColor" d="m1.79 12l5.58 5.59L5.96 19L.37 13.41zm.45-7.78L12.9 14.89l-1.28 1.28L7.44 12l-1.41 1.41L11.62 19l2.69-2.69l4.89 4.89l1.41-1.41L3.65 2.81zm14.9 9.27L23.62 7L22.2 5.59l-6.48 6.48zM17.96 7l-1.41-1.41l-3.65 3.66l1.41 1.41z" />
		</symbol>
		<symbol id="delayedmoderation" viewBox="0 0 32 32">
			<path fill="currentColor" d="m17 15.5l-.5-7.876a1 1 0 1 0-2 0l-.465 7.343l-3.004 1.96a1 1 0 0 0 1.001 1.732l3.306-1.678c.054.008.108.018.165.018c.83 0 1.5-.67 1.5-1.5zm1.94 5.955a.999.999 0 1 0 1.363.367a1 1 0 0 0-1.365-.367zm.998-13.642a1 1 0 1 0-.997 1.735a1 1 0 0 0 .997-1.736zm1.885 12.492a1 1 0 1 0 .998-1.734a1 1 0 0 0-.998 1.734m1-7.877a1 1 0 1 0-1.001-1.733a1 1 0 0 0 1 1.733zm1.555 3.072c0-.55-.448-1-1-1a1 1 0 1 0 1 1M9.546 12.062a1 1 0 1 0-1.73-1a1 1 0 0 0 1.729 1zM6.624 15.5a1.001 1.001 0 1 0 2.002-.002a1.001 1.001 0 0 0-2.002.002m2.555 4.805a1.001 1.001 0 1 0-.002 0zm2.882-10.76a.999.999 0 0 0 .366-1.366a.999.999 0 1 0-.366 1.364zm2.44 13.832a1 1 0 1 0 1.998.002a1 1 0 0 0-1.998-.002m-3.806-1.555c-.275.48-.11 1.09.366 1.365a1 1 0 1 0-.366-1.365m17.978-7.735l-3.27-1.186c.29 1.106.41 2.275.31 3.48c-.493 5.638-5.45 9.808-11.092 9.332a10.26 10.26 0 0 1-9.333-11.09c.493-5.64 5.448-9.812 11.088-9.335a10.169 10.169 0 0 1 6.194 2.833l-1.637 1.377l7.03 2.548l-1.308-7.364l-1.77 1.493c-2.134-2.15-4.997-3.597-8.25-3.877c-7.29-.626-13.71 4.776-14.34 12.068c-.625 7.29 4.777 13.71 12.066 14.34c7.293.624 13.713-4.777 14.342-12.067c.074-.866.057-1.718-.03-2.55z" />
		</symbol>
		<symbol id="multiclose" viewBox="0 0 24 24">
			<path fill="currentColor" d="M6 20V10h12v3.09c.33-.05.66-.09 1-.09c.34 0 .67.04 1 .09V10a2 2 0 0 0-2-2h-1V6c0-2.76-2.24-5-5-5S7 3.24 7 6v2H6c-1.11 0-2 .89-2 2v10a2 2 0 0 0 2 2h7.81c-.35-.61-.59-1.28-.72-2zM9 6c0-1.66 1.34-3 3-3s3 1.34 3 3v2H9zm5 9c0 1.11-.89 2-2 2a2 2 0 0 1-2-2c0-1.11.89-2 2-2a2 2 0 0 1 2 2m9 3v2h-3v3h-2v-3h-3v-2h3v-3h2v3z" />
		</symbol>
		<symbol id="multiopen" viewBox="0 0 24 24">
			<path fill="currentColor" d="M12 13c-1.1 0-2 .9-2 2s.9 2 2 2s2-.9 2-2s-.9-2-2-2m6-5h-1V6c0-2.76-2.24-5-5-5c-2.28 0-4.27 1.54-4.84 3.75c-.14.54.18 1.08.72 1.22a1 1 0 0 0 1.22-.72A2.996 2.996 0 0 1 12 3c1.65 0 3 1.35 3 3v2H6c-1.1 0-2 .9-2 2v10c0 1.1.9 2 2 2h12c1.1 0 2-.9 2-2V10c0-1.1-.9-2-2-2m0 11c0 .55-.45 1-1 1H7c-.55 0-1-.45-1-1v-8c0-.55.45-1 1-1h10c.55 0 1 .45 1 1z" />
		</symbol>
		<symbol id="multistick" viewBox="0 0 16 16">
			<path fill="currentColor" fill-rule="evenodd" d="M10.5 2.255v-.01c.003-.03.013-.157-.361-.35C9.703 1.668 8.966 1.5 8 1.5c-.967 0-1.703.169-2.138.394c-.375.194-.365.32-.362.351v.01c-.003.03-.013.157.362.35C6.297 2.832 7.033 3 8 3c.967 0 1.703-.169 2.139-.394c.374-.194.364-.32.361-.351M8 4.5c.506 0 .99-.04 1.436-.118l.84 2.352l.253.707l.717.221c.648.2 1.055.44 1.277.65c.192.18.227.31.227.438c0 .14-.055.488-.937.878c-.869.384-2.2.622-3.813.622s-2.944-.238-3.813-.622c-.882-.39-.937-.738-.937-.878c0-.128.035-.259.227-.439c.222-.209.629-.448 1.277-.649l.717-.221l.253-.707l.84-2.352c.445.079.93.118 1.436.118m4-2.25c0 .738-.433 1.294-1.136 1.669l.825 2.31c1.553.48 2.561 1.32 2.561 2.52c0 1.854-2.402 2.848-5.5 2.985V15a.75.75 0 0 1-1.5 0v-3.266c-3.098-.136-5.5-1.131-5.5-2.984c0-1.2 1.008-2.04 2.561-2.52l.825-2.311C4.433 3.544 4 2.988 4 2.25C4 .75 5.79 0 8 0s4 .75 4 2.25" clip-rule="evenodd" />
		</symbol>
		<symbol id="multiunstick" viewBox="0 0 16 16">
			<path fill="currentColor" fill-rule="evenodd" d="M10.5 2.255v-.01c.003-.03.013-.157-.361-.35C9.703 1.668 8.966 1.5 8 1.5c-.967 0-1.703.169-2.138.394c-.375.194-.365.32-.362.351v.01c0 .008-.002.024.005.048L4.38 1.179C5.02.393 6.4 0 8 0c2.21 0 4 .75 4 2.25c0 .738-.433 1.294-1.136 1.669l.825 2.31c1.553.48 2.561 1.32 2.561 2.52c0 .617-.266 1.138-.734 1.565l-1.061-1.061c.27-.227.295-.41.295-.503c0-.128-.035-.259-.226-.439c-.223-.209-.63-.448-1.278-.649l-.552-.17l-.228-.228l-.19-.53l-.84-2.352a8.304 8.304 0 0 1-1.739.113l-1.96-1.96c.037.023.077.046.125.07C6.297 2.832 7.033 3 8 3c.967 0 1.703-.169 2.139-.394c.374-.194.364-.32.361-.351m-.008 9.297l2.478 2.478a.75.75 0 1 0 1.06-1.06l-11-11a.75.75 0 0 0-1.06 1.06l2.567 2.567l-.226.632C2.758 6.71 1.75 7.55 1.75 8.75c0 1.854 2.402 2.848 5.5 2.985V15a.75.75 0 0 0 1.5 0v-3.266a13.889 13.889 0 0 0 1.742-.182m-1.345-1.345L5.71 6.771l-.239.67l-.717.221c-.648.2-1.055.44-1.277.65c-.192.18-.227.31-.227.438c0 .14.055.488.937.878c.869.384 2.2.622 3.813.622c.4 0 .784-.015 1.147-.043" clip-rule="evenodd" />
		</symbol>
	</defs>
</svg>